<?xml version="1.0" encoding="UTF-8" standalone="no"?>
<!-- Generator: Adobe Illustrator 16.0.0, SVG Export Plug-In . SVG Version: 6.00 Build 0)  -->

<svg
   xmlns:dc="http://purl.org/dc/elements/1.1/"
   xmlns:cc="http://creativecommons.org/ns#"
   xmlns:rdf="http://www.w3.org/1999/02/22-rdf-syntax-ns#"
   xmlns:svg="http://www.w3.org/2000/svg"
   xmlns="http://www.w3.org/2000/svg"
   xmlns:sodipodi="http://sodipodi.sourceforge.net/DTD/sodipodi-0.dtd"
   xmlns:inkscape="http://www.inkscape.org/namespaces/inkscape"
   version="1.1"
   id="Layer_1"
   x="0px"
   y="0px"
   width="99"
   height="99"
   viewBox="0 0 99 99"
   enable-background="new 0 0 612 792"
   xml:space="preserve"
   inkscape:version="0.48.4 r9939"
   sodipodi:docname="cuttle-inkscape.svg"><metadata
     id="metadata3009"><rdf:RDF><cc:Work
         rdf:about=""><dc:format>image/svg+xml</dc:format><dc:type
           rdf:resource="http://purl.org/dc/dcmitype/StillImage" /><dc:title /></cc:Work></rdf:RDF></metadata><defs
     id="defs3007" /><sodipodi:namedview
     pagecolor="#ffffff"
     bordercolor="#666666"
     borderopacity="1"
     objecttolerance="10"
     gridtolerance="10"
     guidetolerance="10"
     inkscape:pageopacity="0"
     inkscape:pageshadow="2"
     inkscape:window-width="1920"
     inkscape:window-height="1031"
     id="namedview3005"
     showgrid="false"
     inkscape:zoom="5.6568542"
     inkscape:cx="52.286698"
     inkscape:cy="56.904991"
     inkscape:window-x="0"
     inkscape:window-y="25"
     inkscape:window-maximized="1"
     inkscape:current-layer="Layer_1"
     fit-margin-top="2"
     fit-margin-left="2"
     fit-margin-right="2"
     fit-margin-bottom="2"
     inkscape:showpageshadow="false" /><circle
     cx="309"
     cy="390.33401"
     r="50"
     id="eyeball"
     sodipodi:cx="309"
     sodipodi:cy="390.33401"
     sodipodi:rx="50"
     sodipodi:ry="50"
     transform="matrix(0.95,0,0,0.95,-244.05,-321.31731)"
     style="fill:#82b8d5" /><path
     d="m 81.75709,65.83169 c 3.383,-6.75 4.11,-12.561 3.771,-20 -0.34,-7.51 -3.5,-15.23 -8.29,-21 -6.33,-7.64 -13.938,-11.62 -23.67,-13 -4.37,8.91 -11.38,15.69 -21,18.56 -3.96,1.18 -15.49,1.72 -17.43,4.73 -1.9,2.94 -2.53,9.22 -2.57,12.71 -0.13,13.33 5.4,25.49 17,32.73 18.229,11.379 42.57,4.489 52.189,-14.73 z"
     id="cornea"
     inkscape:connector-curvature="0"
     style="fill:#a4dfe8" /><path
     id="highlight"
     d="m 39.799954,40.642403 c -2.249566,0.725 -3.735075,2.09725 -5.244259,4.2195 -1.601964,2.5275 -3.292118,3.143 -5.464363,0.736 -2.391932,-2.282 -3.283145,9.989 -2.756968,15.125 0.50824,5.137 3.882389,7.903 6.92559,8.625 3.043245,0.721 5.598722,-4.493 6.104817,-5.36 1.106031,-1.924 2.132537,-3.75 5.136259,-3.836 3.010575,-0.094 5.477548,1.738 7.271001,4.946 1.791986,3.195 7.026252,3.098 8.679911,2.865 3.752252,-0.617 8.550692,-7.314 9.793137,-13.115 3.213119,-16.909756 -6.31004,-36.070357 -13.21883,-28.689777 -6.413599,6.229016 -4.801289,19.871523 -7.523108,21.026297 -3.657054,0.920631 -3.072729,-8.578896 -9.703187,-6.54202 z"
     inkscape:connector-curvature="0"
     style="fill:#ffffff"
     sodipodi:nodetypes="ccccccccccccc" /><path
     id="pupil"
     d="m 38.55609,44.373237 c -2.55334,1.153 -3.70767,4.79875 -4.72822,5.86175 -1.02054,1.063 -2.12431,1.528 -4.64396,-0.826 -2.52857,-2.355 -3.42328,6.673 -2.83573,11.827 0.56774,5.155 3.28457,8.371 6.48887,9.185 5.634763,0.249478 6.673473,-4.216963 11.915573,-5.984835 5.746158,-1.595541 5.690778,5.999706 14.922591,5.009971 C 67.197412,68.089434 69.62021,60.994987 70.40098,56.899987 72.205436,47.427564 68.057912,32.697138 59.803253,33.779045 52.611766,35.310731 54.135995,48.396908 49.786085,50.11821 45.854869,50.971325 44.872795,41.41455 38.55609,44.373237 z"
     inkscape:connector-curvature="0"
     style="fill:#222222"
     sodipodi:nodetypes="csccccccccc" /></svg>