<?xml version="1.0" encoding="UTF-8" standalone="no"?>
<!-- Generator: Adobe Illustrator 16.0.0, SVG Export Plug-In . SVG Version: 6.00 Build 0)  -->

<svg
   xmlns:dc="http://purl.org/dc/elements/1.1/"
   xmlns:cc="http://creativecommons.org/ns#"
   xmlns:rdf="http://www.w3.org/1999/02/22-rdf-syntax-ns#"
   xmlns:svg="http://www.w3.org/2000/svg"
   xmlns="http://www.w3.org/2000/svg"
   xmlns:sodipodi="http://sodipodi.sourceforge.net/DTD/sodipodi-0.dtd"
   xmlns:inkscape="http://www.inkscape.org/namespaces/inkscape"
   version="1.1"
   id="Layer_1"
   x="0px"
   y="0px"
   width="99"
   height="99"
   viewBox="0 0 99 99"
   enable-background="new 0 0 612 792"
   xml:space="preserve"
   inkscape:version="0.48.4 r9939"
   sodipodi:docname="cuttle-inkscape2.svg"><metadata
     id="metadata3009"><rdf:RDF><cc:Work
         rdf:about=""><dc:format>image/svg+xml</dc:format><dc:type
           rdf:resource="http://purl.org/dc/dcmitype/StillImage" /><dc:title /></cc:Work></rdf:RDF></metadata><defs
     id="defs3007" /><sodipodi:namedview
     pagecolor="#ffffff"
     bordercolor="#666666"
     borderopacity="1"
     objecttolerance="10"
     gridtolerance="10"
     guidetolerance="10"
     inkscape:pageopacity="0"
     inkscape:pageshadow="2"
     inkscape:window-width="1920"
     inkscape:window-height="1031"
     id="namedview3005"
     showgrid="false"
     inkscape:zoom="5.6568542"
     inkscape:cx="54.887032"
     inkscape:cy="42.70311"
     inkscape:window-x="0"
     inkscape:window-y="25"
     inkscape:window-maximized="1"
     inkscape:current-layer="Layer_1"
     fit-margin-top="2"
     fit-margin-left="2"
     fit-margin-right="2"
     fit-margin-bottom="2"
     inkscape:showpageshadow="false" /><circle
     cx="309"
     cy="390.33401"
     r="50"
     id="eyeball"
     sodipodi:cx="309"
     sodipodi:cy="390.33401"
     sodipodi:rx="50"
     sodipodi:ry="50"
     transform="matrix(0.95,0,0,0.95,-244.05,-321.31731)"
     style="fill:#82b8d5" /><path
     d="m 81.75709,65.83169 c 3.383,-6.75 4.11,-12.561 3.771,-20 -0.34,-7.51 -3.5,-15.23 -8.29,-21 -6.33,-7.64 -13.938,-11.62 -23.67,-13 -4.37,8.91 -11.38,15.69 -21,18.56 -3.96,1.18 -15.49,1.72 -17.43,4.73 -1.9,2.94 -2.53,9.22 -2.57,12.71 -0.13,13.33 5.4,25.49 17,32.73 18.229,11.379 42.57,4.489 52.189,-14.73 z"
     id="cornea"
     inkscape:connector-curvature="0"
     style="fill:#a4dfe8" /><path
     d="m 39.341094,39.93445 c -4.55229,1.154928 -5.549917,7.742299 -7.867458,8.30927 -2.236287,0.547093 -3.750618,-2.449045 -4.882297,-1.00228 -4.13565,10.063936 5.982188,9.538541 12.452668,11.89107 10.178481,-2.300157 9.832615,12.563326 20.54406,11.780367 C 70.027802,69.737672 73.086111,55.120828 73.05051,49.770062 73.11166,44.416079 73.128988,23.62881 59.742447,24.189404 51.673755,26.221814 52.841934,43.796631 48.956988,45.53699 44.54625,46.668997 43.3033,39.133536 39.341094,39.93445 z"
     inkscape:connector-curvature="0"
     style="fill:#ffffff;fill-opacity:1"
     sodipodi:nodetypes="csccccccc" /><path
     id="pupil"
     d="m 37.848983,42.998237 c -2.55334,1.153 -3.70767,4.79875 -4.72822,5.86175 -1.02054,1.063 -2.12431,1.528 -4.64396,-0.826 -2.52857,-2.355 -3.42328,6.673 -2.83573,11.827 0.56774,5.155 3.28457,8.371 6.48887,9.185 5.634763,0.249478 6.673473,-4.216963 11.915573,-5.984835 5.746158,-1.595541 5.690778,5.999706 14.922591,5.009971 7.522198,-1.356689 9.569996,-13.576136 9.538266,-17.608636 0.05446,-4.034923 -1.155568,-19.140349 -9.410227,-18.058442 -7.191487,1.531686 -5.667258,14.617863 -10.017168,16.339165 -3.931216,0.853115 -4.91329,-8.70366 -11.229995,-5.744973 z"
     inkscape:connector-curvature="0"
     style="fill:#222222"
     sodipodi:nodetypes="csccccccccc" /></svg>